<svg width="39" height="38" viewBox="0 0 39 38" fill="none" xmlns="http://www.w3.org/2000/svg">
<path d="M28.8335 18.6666C28.8335 19.5222 29.5335 20.2222 30.389 20.2222H33.5001C34.3557 20.2222 35.0557 19.5222 35.0557 18.6666C35.0557 17.8111 34.3557 17.1111 33.5001 17.1111H30.389C29.5335 17.1111 28.8335 17.8111 28.8335 18.6666ZM26.6401 26.1644C26.518 26.3237 26.429 26.5059 26.3785 26.7002C26.3279 26.8945 26.3168 27.097 26.3458 27.2956C26.3748 27.4943 26.4434 27.6851 26.5473 27.8569C26.6513 28.0286 26.7887 28.1777 26.9512 28.2955C27.7757 28.9022 28.6468 29.5555 29.4712 30.1777C30.1557 30.6911 31.1201 30.5511 31.6179 29.8666C31.6179 29.8511 31.6335 29.8511 31.6335 29.8355C31.7556 29.6748 31.8445 29.4913 31.895 29.2958C31.9455 29.1004 31.9566 28.8968 31.9277 28.697C31.8987 28.4972 31.8303 28.3052 31.7264 28.1321C31.6224 27.959 31.4851 27.8083 31.3224 27.6889C30.4979 27.0666 29.6268 26.4133 28.8179 25.8066C28.6546 25.6859 28.469 25.5986 28.2719 25.5496C28.0747 25.5007 27.8699 25.4911 27.669 25.5215C27.4682 25.5518 27.2753 25.6215 27.1014 25.7265C26.9276 25.8315 26.7761 25.9697 26.6557 26.1333C26.6557 26.1488 26.6401 26.1644 26.6401 26.1644ZM31.649 7.48218C31.649 7.46663 31.6335 7.46663 31.6335 7.45107C31.5137 7.28867 31.3629 7.15166 31.1899 7.04798C31.0168 6.94429 30.8248 6.876 30.6251 6.84706C30.4254 6.81812 30.222 6.82911 30.0266 6.87939C29.8312 6.92967 29.6477 7.01824 29.4868 7.13996C28.6624 7.76218 27.7757 8.41552 26.9668 9.03774C26.2824 9.55107 26.1579 10.5155 26.6712 11.1844C26.6712 11.2 26.6868 11.2 26.6868 11.2155C27.2001 11.9 28.149 12.04 28.8335 11.5266C29.6579 10.92 30.529 10.2511 31.3535 9.62885C32.0224 9.13107 32.1468 8.16663 31.649 7.48218ZM13.2779 14H7.05569C5.34458 14 3.94458 15.4 3.94458 17.1111V20.2222C3.94458 21.9333 5.34458 23.3333 7.05569 23.3333H8.61125V28C8.61125 28.8555 9.31125 29.5555 10.1668 29.5555C11.0224 29.5555 11.7224 28.8555 11.7224 28V23.3333H13.2779L21.0557 28V9.3333L13.2779 14ZM24.9446 18.6666C24.9446 16.5977 24.0424 14.7311 22.6112 13.4555V23.8622C24.0424 22.6022 24.9446 20.7355 24.9446 18.6666Z" fill="#9ED0E0"/>
</svg>
