<svg width="39" height="38" viewBox="0 0 39 38" fill="none" xmlns="http://www.w3.org/2000/svg">
<path d="M31.9443 6.22217H7.05545C5.34434 6.22217 3.94434 7.62217 3.94434 9.33328V27.9999C3.94434 29.7111 5.34434 31.1111 7.05545 31.1111H31.9443C33.6554 31.1111 35.0554 29.7111 35.0554 27.9999V9.33328C35.0554 7.62217 33.6554 6.22217 31.9443 6.22217ZM31.3221 12.8333L21.1488 19.1955C20.1377 19.8333 18.8621 19.8333 17.851 19.1955L7.67767 12.8333C7.52169 12.7457 7.3851 12.6274 7.27616 12.4855C7.16723 12.3437 7.08821 12.1812 7.0439 12.0079C6.99958 11.8346 6.9909 11.6541 7.01836 11.4773C7.04582 11.3006 7.10886 11.1312 7.20366 10.9795C7.29847 10.8278 7.42306 10.697 7.56991 10.5948C7.71676 10.4927 7.8828 10.4214 8.058 10.3853C8.23319 10.3492 8.41389 10.349 8.58915 10.3848C8.76442 10.4205 8.93061 10.4914 9.07767 10.5933L19.4999 17.1111L29.9221 10.5933C30.0692 10.4914 30.2354 10.4205 30.4106 10.3848C30.5859 10.349 30.7666 10.3492 30.9418 10.3853C31.117 10.4214 31.283 10.4927 31.4299 10.5948C31.5767 10.697 31.7013 10.8278 31.7961 10.9795C31.8909 11.1312 31.954 11.3006 31.9814 11.4773C32.0089 11.6541 32.0002 11.8346 31.9559 12.0079C31.9116 12.1812 31.8326 12.3437 31.7236 12.4855C31.6147 12.6274 31.4781 12.7457 31.3221 12.8333Z" fill="#9ED0E0"/>
</svg>
