<svg width="39" height="38" viewBox="0 0 39 38" fill="none" xmlns="http://www.w3.org/2000/svg">
<path fill-rule="evenodd" clip-rule="evenodd" d="M15.2221 4.6665C8.99367 4.6665 3.94434 9.71584 3.94434 15.9443C3.94434 29.9443 22.611 32.6665 22.611 32.6665V27.2221H23.7777C30.0061 27.2221 35.0554 22.1727 35.0554 15.9443C35.0554 9.71584 30.0061 4.6665 23.7777 4.6665H15.2221ZM19.4999 18.2776C20.0156 18.2776 20.5102 18.0728 20.8748 17.7081C21.2395 17.3434 21.4443 16.8489 21.4443 16.3332C21.4443 15.8175 21.2395 15.3229 20.8748 14.9582C20.5102 14.5936 20.0156 14.3887 19.4999 14.3887C18.9842 14.3887 18.4896 14.5936 18.125 14.9582C17.7603 15.3229 17.5554 15.8175 17.5554 16.3332C17.5554 16.8489 17.7603 17.3434 18.125 17.7081C18.4896 18.0728 18.9842 18.2776 19.4999 18.2776ZM27.6666 16.3332C27.6666 16.8489 27.4617 17.3434 27.097 17.7081C26.7324 18.0728 26.2378 18.2776 25.7221 18.2776C25.2064 18.2776 24.7118 18.0728 24.3472 17.7081C23.9825 17.3434 23.7777 16.8489 23.7777 16.3332C23.7777 15.8175 23.9825 15.3229 24.3472 14.9582C24.7118 14.5936 25.2064 14.3887 25.7221 14.3887C26.2378 14.3887 26.7324 14.5936 27.097 14.9582C27.4617 15.3229 27.6666 15.8175 27.6666 16.3332ZM13.2777 18.2776C13.7934 18.2776 14.2879 18.0728 14.6526 17.7081C15.0173 17.3434 15.2221 16.8489 15.2221 16.3332C15.2221 15.8175 15.0173 15.3229 14.6526 14.9582C14.2879 14.5936 13.7934 14.3887 13.2777 14.3887C12.762 14.3887 12.2674 14.5936 11.9027 14.9582C11.5381 15.3229 11.3332 15.8175 11.3332 16.3332C11.3332 16.8489 11.5381 17.3434 11.9027 17.7081C12.2674 18.0728 12.762 18.2776 13.2777 18.2776Z" fill="#9ED0E0"/>
</svg>
