<svg width="52" height="56" viewBox="0 0 52 56" fill="none" xmlns="http://www.w3.org/2000/svg">
<rect width="52" height="55" transform="translate(0 0.333496)" fill="#9ED0E0"/>
<path d="M20.7206 23.84L25.894 29.0134L31.0673 23.84C31.1908 23.7166 31.3373 23.6187 31.4986 23.5519C31.6599 23.4851 31.8327 23.4507 32.0073 23.4507C32.1819 23.4507 32.3547 23.4851 32.516 23.5519C32.6773 23.6187 32.8239 23.7166 32.9473 23.84C33.0708 23.9635 33.1687 24.11 33.2355 24.2713C33.3023 24.4326 33.3367 24.6055 33.3367 24.78C33.3367 24.9546 33.3023 25.1275 33.2355 25.2888C33.1687 25.4501 33.0708 25.5966 32.9473 25.72L26.8273 31.84C26.3073 32.36 25.4673 32.36 24.9473 31.84L18.8273 25.72C18.7037 25.5967 18.6056 25.4502 18.5387 25.2889C18.4718 25.1276 18.4374 24.9547 18.4374 24.78C18.4374 24.6054 18.4718 24.4325 18.5387 24.2712C18.6056 24.1099 18.7037 23.9634 18.8273 23.84C19.3473 23.3334 20.2006 23.32 20.7206 23.84Z" fill="white"/>
</svg>
