<svg width="39" height="38" viewBox="0 0 39 38" fill="none" xmlns="http://www.w3.org/2000/svg">
<path d="M19.5 23.6445C22.2491 23.6445 24.4778 21.4159 24.4778 18.6667C24.4778 15.9176 22.2491 13.689 19.5 13.689C16.7508 13.689 14.5222 15.9176 14.5222 18.6667C14.5222 21.4159 16.7508 23.6445 19.5 23.6445Z" fill="#9ED0E0"/>
<path d="M14.8332 3.11108L11.9866 6.2222H7.05545C5.34434 6.2222 3.94434 7.6222 3.94434 9.33331V28C3.94434 29.7111 5.34434 31.1111 7.05545 31.1111H31.9443C33.6554 31.1111 35.0554 29.7111 35.0554 28V9.33331C35.0554 7.6222 33.6554 6.2222 31.9443 6.2222H27.0132L24.1666 3.11108H14.8332ZM19.4999 26.4444C15.2066 26.4444 11.7221 22.96 11.7221 18.6666C11.7221 14.3733 15.2066 10.8889 19.4999 10.8889C23.7932 10.8889 27.2777 14.3733 27.2777 18.6666C27.2777 22.96 23.7932 26.4444 19.4999 26.4444Z" fill="#9ED0E0"/>
</svg>
