<svg width="55" height="121" viewBox="0 0 55 121" fill="none" xmlns="http://www.w3.org/2000/svg">
<path d="M15.1304 114.81C13.86 114.343 12.3342 115.325 11.7226 117.002C11.1114 118.68 11.6453 120.417 12.9156 120.884C14.1864 121.35 15.7118 120.369 16.3234 118.692C16.9346 117.015 16.4007 115.277 15.13 114.81H15.1304Z" fill="#CCE1E4"/>
<path d="M19.958 112.135C18.6288 112.251 17.6743 113.766 17.8254 115.522C17.9769 117.276 19.1767 118.605 20.5059 118.49C21.8347 118.374 22.7892 116.858 22.6381 115.103C22.4866 113.349 21.2867 112.02 19.958 112.135Z" fill="#CCE1E4"/>
<path d="M9.60718 112.195C8.44078 111.507 6.7647 112.198 5.86301 113.737C4.96171 115.278 5.17646 117.084 6.34327 117.771C7.50967 118.459 9.18615 117.767 10.0874 116.228C10.9887 114.687 10.7736 112.882 9.60718 112.194V112.195Z" fill="#CCE1E4"/>
<path d="M3.35979 110.37C4.11604 111.472 5.9009 111.558 7.34651 110.559C8.79253 109.56 9.35136 107.857 8.59551 106.754C7.83926 105.652 6.0544 105.566 4.60879 106.565C3.16317 107.563 2.60394 109.266 3.35979 110.369V110.37Z" fill="#CCE1E4"/>
<path d="M11.1258 110.161C11.2701 111.163 11.8821 112.077 12.8599 112.54C13.8378 113.003 14.9296 112.896 15.7914 112.371C16.7443 111.791 17.3535 111.033 18.1742 110.702C18.9945 110.37 21.2927 111.357 22.7234 108.749C23.7339 106.908 22.8064 104.58 20.9119 103.682C19.472 103.001 18.3325 103.077 17.4957 102.681C16.6593 102.285 15.9933 101.353 14.5533 100.672C12.6589 99.7744 10.2785 100.536 9.50414 102.49C8.40784 105.256 10.6282 106.408 10.895 107.255C11.1617 108.101 10.9659 109.055 11.1254 110.161H11.1258Z" fill="#CCE1E4"/>
<path d="M12.2222 81.3503C10.9518 80.8833 9.42601 81.865 8.81441 83.5422C8.2032 85.2194 8.73705 86.9572 10.0074 87.4238C11.2782 87.89 12.8035 86.9091 13.4152 85.2315C14.0264 83.5543 13.4925 81.8165 12.2218 81.3503H12.2222Z" fill="#CCE1E4"/>
<path d="M17.0498 78.6751C15.7206 78.7908 14.7661 80.3062 14.9172 82.0615C15.0687 83.8159 16.2685 85.1445 17.5977 85.0297C18.9265 84.9137 19.881 83.3978 19.7299 81.643C19.5784 79.8886 18.3785 78.5599 17.0498 78.6751Z" fill="#CCE1E4"/>
<path d="M6.69898 78.7347C5.53258 78.0465 3.8565 78.7375 2.95481 80.2772C2.05351 81.8181 2.26826 83.6235 3.43507 84.3113C4.60147 84.9986 6.27795 84.3072 7.17924 82.7675C8.08054 81.227 7.86539 79.4216 6.69898 78.7342V78.7347Z" fill="#CCE1E4"/>
<path d="M0.451584 76.9094C1.20783 78.012 2.99269 78.0973 4.43831 77.099C5.88433 76.1003 6.44315 74.3972 5.68731 73.2942C4.93106 72.1916 3.1462 72.1063 1.70058 73.1046C0.254967 74.1029 -0.304262 75.8059 0.451584 76.909V76.9094Z" fill="#CCE1E4"/>
<path d="M8.21762 76.7012C8.36186 77.7028 8.97387 78.6166 9.95171 79.0795C10.9296 79.5425 12.0214 79.4358 12.8832 78.9109C13.8361 78.3307 14.4453 77.5726 15.266 77.2414C16.0863 76.9103 18.3845 77.8969 19.8152 75.2893C20.8257 73.4475 19.8982 71.1194 18.0037 70.2221C16.5638 69.5404 15.4243 69.6164 14.5875 69.2206C13.7511 68.8247 13.0851 67.8932 11.6451 67.2114C9.75067 66.3142 7.37031 67.0756 6.59593 69.0293C5.49964 71.7954 7.72004 72.9482 7.98676 73.7945C8.25348 74.6403 8.05767 75.5946 8.21722 76.7012H8.21762Z" fill="#CCE1E4"/>
<path d="M46.8774 48.8527C45.6071 48.3857 44.0813 49.3674 43.4697 51.0446C42.8585 52.7218 43.3923 54.4596 44.6627 54.9262C45.9334 55.3924 47.4588 54.4115 48.0704 52.7339C48.6816 51.0567 48.1478 49.3189 46.877 48.8527H46.8774Z" fill="#CCE1E4"/>
<path d="M51.705 46.1776C50.3759 46.2932 49.4214 47.8087 49.5725 49.5639C49.724 51.3183 50.9238 52.647 52.253 52.5321C53.5818 52.4161 54.5362 50.9002 54.3852 49.1454C54.2337 47.391 53.0338 46.0623 51.705 46.1776Z" fill="#CCE1E4"/>
<path d="M41.3543 46.2371C40.1879 45.5489 38.5118 46.2399 37.6101 47.7796C36.7088 49.3206 36.9235 51.1259 38.0903 51.8137C39.2567 52.5011 40.9332 51.8097 41.8345 50.27C42.7358 48.7294 42.5207 46.9241 41.3543 46.2367V46.2371Z" fill="#CCE1E4"/>
<path d="M35.1069 44.4118C35.8631 45.5144 37.648 45.5998 39.0936 44.6014C40.5396 43.6027 41.0984 41.8997 40.3426 40.7966C39.5863 39.694 37.8015 39.6087 36.3559 40.607C34.9102 41.6053 34.351 43.3084 35.1069 44.4114V44.4118Z" fill="#CCE1E4"/>
<path d="M42.8729 44.2037C43.0171 45.2052 43.6291 46.119 44.607 46.582C45.5848 47.0449 46.6767 46.9382 47.5385 46.4134C48.4914 45.8331 49.1006 45.075 49.9213 44.7439C50.7416 44.4127 53.0397 45.3993 54.4705 42.7917C55.4809 40.95 54.5535 38.6218 52.659 37.7246C51.219 37.0429 50.0796 37.1189 49.2428 36.723C48.4064 36.3272 47.7404 35.3956 46.3004 34.7139C44.4059 33.8167 42.0256 34.578 41.2512 36.5318C40.1549 39.2979 42.3753 40.4506 42.642 41.2969C42.9088 42.1428 42.7129 43.097 42.8725 44.2037H42.8729Z" fill="#CCE1E4"/>
<path d="M43.9692 15.3925C42.6989 14.9255 41.1731 15.9072 40.5615 17.5844C39.9503 19.2616 40.4841 20.9994 41.7545 21.466C43.0252 21.9322 44.5506 20.9513 45.1622 19.2737C45.7734 17.5965 45.2396 15.8587 43.9688 15.3925H43.9692Z" fill="#CCE1E4"/>
<path d="M48.7968 12.7174C47.4677 12.833 46.5132 14.3485 46.6643 16.1037C46.8158 17.8581 48.0156 19.1868 49.3448 19.0719C50.6736 18.9559 51.628 17.44 51.4769 15.6852C51.3255 13.9308 50.1256 12.6021 48.7968 12.7174Z" fill="#CCE1E4"/>
<path d="M38.4461 12.7769C37.2796 12.0887 35.6036 12.7797 34.7019 14.3194C33.8006 15.8604 34.0153 17.6657 35.1821 18.3535C36.3485 19.0409 38.025 18.3495 38.9263 16.8097C39.8276 15.2692 39.6125 13.4639 38.4461 12.7765V12.7769Z" fill="#CCE1E4"/>
<path d="M32.1987 10.9516C32.9549 12.0542 34.7398 12.1395 36.1854 11.1412C37.6314 10.1425 38.1902 8.43946 37.4344 7.33643C36.6781 6.23381 34.8933 6.14849 33.4477 7.1468C32.002 8.14511 31.4428 9.84817 32.1987 10.9512V10.9516Z" fill="#CCE1E4"/>
<path d="M39.9647 10.7435C40.1089 11.745 40.7209 12.6588 41.6988 13.1218C42.6766 13.5847 43.7685 13.478 44.6303 12.9532C45.5832 12.3729 46.1924 11.6148 47.0131 11.2837C47.8334 10.9525 50.1315 11.9391 51.5623 9.33152C52.5727 7.48976 51.6452 5.16159 49.7508 4.26437C48.3108 3.58266 47.1714 3.65867 46.3346 3.26282C45.4982 2.86698 44.8322 1.93539 43.3922 1.25367C41.4977 0.356449 39.1174 1.11782 38.343 3.07157C37.2467 5.83764 39.4671 6.99041 39.7338 7.83668C40.0005 8.68256 39.8047 9.63679 39.9643 10.7435H39.9647Z" fill="#CCE1E4"/>
</svg>
