<svg width="39" height="38" viewBox="0 0 39 38" fill="none" xmlns="http://www.w3.org/2000/svg">
<path d="M19.5 32.6668V29.3613L27.7444 21.1168L31.05 24.4224L22.8056 32.6668H19.5ZM5.5 24.8891V21.7779H16.3889V24.8891H5.5ZM32.1389 23.3335L28.8333 20.0279L29.9611 18.9002C30.2463 18.615 30.6093 18.4724 31.05 18.4724C31.4907 18.4724 31.8537 18.615 32.1389 18.9002L33.2667 20.0279C33.5519 20.3131 33.6944 20.6761 33.6944 21.1168C33.6944 21.5576 33.5519 21.9205 33.2667 22.2057L32.1389 23.3335ZM5.5 18.6668V15.5557H22.6111V18.6668H5.5ZM5.5 12.4446V9.3335H22.6111V12.4446H5.5Z" fill="#9ED0E0"/>
</svg>
