<svg width="316" height="86" viewBox="0 0 316 86" fill="none" xmlns="http://www.w3.org/2000/svg">
<path d="M247.572 37.0742C246.028 39.7209 242.204 39.7209 240.661 37.0742L228.818 16.765C227.263 14.0984 229.187 10.7501 232.274 10.7501H255.959C259.046 10.7501 260.969 14.0984 259.414 16.765L247.572 37.0742Z" fill="#CCE1E4"/>
<path d="M296.764 37.0742C295.221 39.7209 291.397 39.7209 289.853 37.0742L278.011 16.765C276.456 14.0984 278.379 10.7501 281.466 10.7501H305.151C308.238 10.7501 310.162 14.0984 308.607 16.765L296.764 37.0742Z" fill="#CCE1E4"/>
<path d="M271.722 48.9258C270.179 46.2791 266.355 46.2791 264.811 48.9258L252.969 69.235C251.414 71.9016 253.337 75.2499 256.424 75.2499H280.109C283.196 75.2499 285.12 71.9016 283.565 69.235L271.722 48.9258Z" fill="#CCE1E4"/>
<path d="M222.417 48.9258C220.873 46.2791 217.049 46.2791 215.506 48.9258L203.663 69.235C202.108 71.9016 204.032 75.2499 207.119 75.2499H230.804C233.891 75.2499 235.814 71.9016 234.259 69.235L222.417 48.9258Z" fill="#CCE1E4"/>
<path d="M173.111 48.9258C171.568 46.2791 167.743 46.2791 166.2 48.9258L154.357 69.235C152.803 71.9016 154.726 75.2499 157.813 75.2499H181.498C184.585 75.2499 186.508 71.9016 184.954 69.235L173.111 48.9258Z" fill="#CCE1E4"/>
<path d="M198.266 37.0742C196.723 39.7209 192.899 39.7209 191.355 37.0742L179.513 16.765C177.958 14.0984 179.881 10.7501 182.968 10.7501H206.653C209.74 10.7501 211.664 14.0984 210.109 16.765L198.266 37.0742Z" fill="#CCE1E4"/>
<path d="M148.847 37.0742C147.304 39.7209 143.48 39.7209 141.936 37.0742L130.094 16.765C128.539 14.0984 130.462 10.7501 133.549 10.7501H157.234C160.321 10.7501 162.245 14.0984 160.69 16.765L148.847 37.0742Z" fill="#CCE1E4"/>
<path d="M98.649 37.0742C97.1056 39.7209 93.2815 39.7209 91.7381 37.0742L79.8955 16.765C78.3406 14.0984 80.2641 10.7501 83.351 10.7501H107.036C110.123 10.7501 112.047 14.0984 110.492 16.765L98.649 37.0742Z" fill="#CCE1E4"/>
<path d="M123.805 48.9258C122.262 46.2791 118.438 46.2791 116.894 48.9258L105.052 69.235C103.497 71.9016 105.42 75.2499 108.507 75.2499H132.192C135.279 75.2499 137.203 71.9016 135.648 69.235L123.805 48.9258Z" fill="#CCE1E4"/>
<path d="M25.1939 48.9258C23.6506 46.2791 19.8264 46.2791 18.2831 48.9258L6.44046 69.235C4.88551 71.9016 6.80903 75.2499 9.8959 75.2499H33.5811C36.668 75.2499 38.5915 71.9016 37.0365 69.235L25.1939 48.9258Z" fill="#CCE1E4"/>
<path d="M74.3853 48.9258C72.842 46.2791 69.0178 46.2791 67.4745 48.9258L55.6319 69.235C54.0769 71.9016 56.0004 75.2499 59.0873 75.2499H82.7725C85.8594 75.2499 87.7829 71.9016 86.2279 69.235L74.3853 48.9258Z" fill="#CCE1E4"/>
<path d="M49.3434 37.0742C47.8 39.7209 43.9758 39.7209 42.4325 37.0742L30.5899 16.765C29.0349 14.0984 30.9584 10.7501 34.0453 10.7501H57.7305C60.8174 10.7501 62.7409 14.0984 61.1859 16.765L49.3434 37.0742Z" fill="#CCE1E4"/>
<path d="M74.4996 48.9258C72.9562 46.2791 69.1321 46.2791 67.5887 48.9258L55.7461 69.235C54.1912 71.9016 56.1147 75.2499 59.2016 75.2499H82.8867C85.9736 75.2499 87.8971 71.9016 86.3422 69.235L74.4996 48.9258Z" fill="#CCE1E4"/>
</svg>
