<svg width="316" height="86" viewBox="0 0 316 86" fill="none" xmlns="http://www.w3.org/2000/svg">
<path d="M68.4281 37.0742C69.9715 39.7209 73.7956 39.7209 75.339 37.0742L87.1816 16.765C88.7366 14.0984 86.813 10.7501 83.7262 10.7501H60.041C56.9541 10.7501 55.0306 14.0984 56.5855 16.765L68.4281 37.0742Z" fill="#CCE1E4"/>
<path d="M19.2357 37.0742C20.7791 39.7209 24.6033 39.7209 26.1466 37.0742L37.9892 16.765C39.5442 14.0984 37.6206 10.7501 34.5338 10.7501H10.8486C7.76173 10.7501 5.83821 14.0984 7.39317 16.765L19.2357 37.0742Z" fill="#CCE1E4"/>
<path d="M44.2777 48.9258C45.8211 46.2791 49.6453 46.2791 51.1886 48.9258L63.0312 69.235C64.5862 71.9016 62.6626 75.2499 59.5758 75.2499H35.8906C32.8037 75.2499 30.8802 71.9016 32.4352 69.235L44.2777 48.9258Z" fill="#CCE1E4"/>
<path d="M93.5834 48.9258C95.1268 46.2791 98.9509 46.2791 100.494 48.9258L112.337 69.235C113.892 71.9016 111.968 75.2499 108.881 75.2499H85.1963C82.1094 75.2499 80.1859 71.9016 81.7408 69.235L93.5834 48.9258Z" fill="#CCE1E4"/>
<path d="M142.889 48.9258C144.432 46.2791 148.257 46.2791 149.8 48.9258L161.643 69.235C163.197 71.9016 161.274 75.2499 158.187 75.2499H134.502C131.415 75.2499 129.492 71.9016 131.046 69.235L142.889 48.9258Z" fill="#CCE1E4"/>
<path d="M117.734 37.0742C119.277 39.7209 123.101 39.7209 124.645 37.0742L136.487 16.765C138.042 14.0984 136.119 10.7501 133.032 10.7501H109.347C106.26 10.7501 104.336 14.0984 105.891 16.765L117.734 37.0742Z" fill="#CCE1E4"/>
<path d="M167.153 37.0742C168.696 39.7209 172.52 39.7209 174.064 37.0742L185.906 16.765C187.461 14.0984 185.538 10.7501 182.451 10.7501H158.766C155.679 10.7501 153.755 14.0984 155.31 16.765L167.153 37.0742Z" fill="#CCE1E4"/>
<path d="M217.351 37.0742C218.894 39.7209 222.718 39.7209 224.262 37.0742L236.104 16.765C237.659 14.0984 235.736 10.7501 232.649 10.7501H208.964C205.877 10.7501 203.953 14.0984 205.508 16.765L217.351 37.0742Z" fill="#CCE1E4"/>
<path d="M192.195 48.9258C193.738 46.2791 197.562 46.2791 199.106 48.9258L210.948 69.235C212.503 71.9016 210.58 75.2499 207.493 75.2499H183.808C180.721 75.2499 178.797 71.9016 180.352 69.235L192.195 48.9258Z" fill="#CCE1E4"/>
<path d="M290.806 48.9258C292.349 46.2791 296.174 46.2791 297.717 48.9258L309.56 69.235C311.114 71.9016 309.191 75.2499 306.104 75.2499H282.419C279.332 75.2499 277.409 71.9016 278.963 69.235L290.806 48.9258Z" fill="#CCE1E4"/>
<path d="M241.615 48.9258C243.158 46.2791 246.982 46.2791 248.526 48.9258L260.368 69.235C261.923 71.9016 260 75.2499 256.913 75.2499H233.228C230.141 75.2499 228.217 71.9016 229.772 69.235L241.615 48.9258Z" fill="#CCE1E4"/>
<path d="M266.657 37.0742C268.2 39.7209 272.024 39.7209 273.568 37.0742L285.41 16.765C286.965 14.0984 285.042 10.7501 281.955 10.7501H258.27C255.183 10.7501 253.259 14.0984 254.814 16.765L266.657 37.0742Z" fill="#CCE1E4"/>
<path d="M241.5 48.9258C243.044 46.2791 246.868 46.2791 248.411 48.9258L260.254 69.235C261.809 71.9016 259.885 75.2499 256.798 75.2499H233.113C230.026 75.2499 228.103 71.9016 229.658 69.235L241.5 48.9258Z" fill="#CCE1E4"/>
</svg>
