<svg width="39" height="38" viewBox="0 0 39 38" fill="none" xmlns="http://www.w3.org/2000/svg">
<path d="M32.1748 11.1792H28.4386C28.9732 10.4016 29.2704 9.4854 29.2941 8.54201C29.3155 7.82333 29.1896 7.10788 28.9244 6.43961C28.6591 5.77133 28.26 5.16435 27.7516 4.65595C27.2432 4.14754 26.6362 3.74845 25.9679 3.48318C25.2997 3.21792 24.5842 3.09208 23.8655 3.1134C23.2017 3.12757 22.548 3.27883 21.9455 3.55767C21.3429 3.83652 20.8045 4.23693 20.3641 4.73377C20.0392 5.10434 19.7499 5.50458 19.4999 5.92925C19.2499 5.50458 18.9605 5.10434 18.6357 4.73377C18.1953 4.23693 17.6569 3.83652 17.0543 3.55767C16.4518 3.27883 15.7981 3.12757 15.1343 3.1134C14.4156 3.09208 13.7001 3.21792 13.0319 3.48318C12.3636 3.74845 11.7566 4.14754 11.2482 4.65595C10.7398 5.16435 10.3407 5.77133 10.0754 6.43961C9.81016 7.10788 9.68433 7.82333 9.70565 8.54201C9.72936 9.4854 10.0266 10.4016 10.5612 11.1792H6.82499C6.061 11.1792 5.32829 11.4827 4.78806 12.023C4.24783 12.5632 3.94434 13.2959 3.94434 14.0599V18.669C3.9442 19.333 4.17351 19.9768 4.59346 20.4912C5.01341 21.0056 5.5982 21.3592 6.24886 21.492V30.1916C6.24886 30.9556 6.55236 31.6883 7.09259 32.2285C7.63282 32.7688 8.36552 33.0723 9.12952 33.0723H29.8703C30.6343 33.0723 31.367 32.7688 31.9072 32.2285C32.4474 31.6883 32.7509 30.9556 32.7509 30.1916V21.492C33.4016 21.3592 33.9864 21.0056 34.4063 20.4912C34.8263 19.9768 35.0556 19.333 35.0554 18.669V14.0599C35.0554 13.2959 34.752 12.5632 34.2117 12.023C33.6715 11.4827 32.9388 11.1792 32.1748 11.1792ZM31.5987 18.0928H21.2283V14.636H31.5987V18.0928ZM22.9567 7.02678C23.0842 6.88527 23.2396 6.77166 23.4131 6.69309C23.5866 6.61451 23.7745 6.57267 23.9649 6.57019H24.0153C24.2591 6.5695 24.5005 6.61784 24.7251 6.71234C24.9498 6.80683 25.1532 6.94555 25.3232 7.12023C25.4932 7.29492 25.6263 7.50201 25.7146 7.72919C25.8029 7.95637 25.8447 8.19899 25.8373 8.44262C25.8349 8.63308 25.793 8.82096 25.7144 8.99447C25.6359 9.16798 25.5223 9.32336 25.3808 9.45085C24.3869 10.3323 22.7522 10.7846 21.4011 11.0006C21.6172 9.65538 22.0694 8.02061 22.9567 7.02678ZM13.6954 7.10312C14.0373 6.76489 14.4978 6.57365 14.9787 6.57019H15.0349C15.2253 6.57267 15.4132 6.61451 15.5867 6.69309C15.7602 6.77166 15.9156 6.88527 16.0431 7.02678C16.9246 8.02061 17.3768 9.65394 17.5915 11.0035C16.2519 10.786 14.6028 10.3338 13.619 9.45085C13.4775 9.32336 13.3639 9.16798 13.2853 8.99447C13.2068 8.82096 13.1649 8.63308 13.1624 8.44262C13.1561 8.19491 13.2 7.94849 13.2916 7.71825C13.3832 7.48801 13.5206 7.27875 13.6954 7.10312ZM7.40113 14.636H17.7715V18.0928H7.40113V14.636ZM9.70565 21.5496H17.7715V29.6155H9.70565V21.5496ZM21.2283 29.6155V21.5496H29.2941V29.6155H21.2283Z" fill="#9ED0E0"/>
</svg>
