<svg width="327" height="35" viewBox="0 0 327 35" fill="none" xmlns="http://www.w3.org/2000/svg">
<mask id="path-1-outside-1_730_4582" maskUnits="userSpaceOnUse" x="-1" y="-1" width="329" height="37" fill="black">
<rect fill="white" x="-1" y="-1" width="329" height="37"/>
<path d="M0.975896 17.072C0.975896 14.872 1.38656 12.7893 2.2079 10.824C3.05856 8.85867 4.2319 7.11333 5.7279 5.588C7.2239 4.06267 8.95456 2.87467 10.9199 2.024C12.8852 1.144 14.9972 0.703999 17.2559 0.703999C19.4852 0.703999 21.5826 1.144 23.5479 2.024C25.5132 2.87467 27.2586 4.06267 28.7839 5.588C30.3092 7.11333 31.4972 8.85867 32.3479 10.824C33.1986 12.7893 33.6239 14.872 33.6239 17.072C33.6239 19.3307 33.1986 21.4427 32.3479 23.408C31.4972 25.3733 30.3092 27.104 28.7839 28.6C27.2879 30.096 25.5426 31.2693 23.5479 32.12C21.5826 32.9413 19.4852 33.352 17.2559 33.352C14.9972 33.352 12.8852 32.9413 10.9199 32.12C8.95456 31.2987 7.2239 30.1547 5.7279 28.688C4.2319 27.192 3.05856 25.4613 2.2079 23.496C1.38656 21.5013 0.975896 19.36 0.975896 17.072ZM5.8159 17.072C5.8159 18.7147 6.10923 20.2547 6.6959 21.692C7.3119 23.1 8.1479 24.3467 9.2039 25.432C10.2599 26.488 11.4772 27.324 12.8559 27.94C14.2639 28.5267 15.7746 28.82 17.3879 28.82C18.9719 28.82 20.4532 28.5267 21.8319 27.94C23.2106 27.324 24.4132 26.488 25.4399 25.432C26.4959 24.3467 27.3172 23.1 27.9039 21.692C28.4906 20.2547 28.7839 18.7147 28.7839 17.072C28.7839 15.4293 28.4759 13.904 27.8599 12.496C27.2732 11.0587 26.4519 9.79733 25.3959 8.712C24.3692 7.62666 23.1519 6.776 21.7439 6.16C20.3652 5.544 18.8839 5.236 17.2999 5.236C15.6572 5.236 14.1466 5.544 12.7679 6.16C11.3892 6.776 10.1719 7.62666 9.1159 8.712C8.0599 9.79733 7.23856 11.0587 6.6519 12.496C6.09456 13.9333 5.8159 15.4587 5.8159 17.072ZM80.8115 34.1L56.2155 9.68L57.5795 10.12L57.7115 33H52.9595V0.0439994H53.1795L77.4675 24.508L76.3675 24.2L76.2795 1.056H80.9435V34.1H80.8115ZM100.296 17.072C100.296 14.872 100.706 12.7893 101.528 10.824C102.378 8.85867 103.552 7.11333 105.048 5.588C106.544 4.06267 108.274 2.87467 110.24 2.024C112.205 1.144 114.317 0.703999 116.576 0.703999C118.805 0.703999 120.902 1.144 122.868 2.024C124.833 2.87467 126.578 4.06267 128.104 5.588C129.629 7.11333 130.817 8.85867 131.668 10.824C132.518 12.7893 132.944 14.872 132.944 17.072C132.944 19.3307 132.518 21.4427 131.668 23.408C130.817 25.3733 129.629 27.104 128.104 28.6C126.608 30.096 124.862 31.2693 122.868 32.12C120.902 32.9413 118.805 33.352 116.576 33.352C114.317 33.352 112.205 32.9413 110.24 32.12C108.274 31.2987 106.544 30.1547 105.048 28.688C103.552 27.192 102.378 25.4613 101.528 23.496C100.706 21.5013 100.296 19.36 100.296 17.072ZM105.136 17.072C105.136 18.7147 105.429 20.2547 106.016 21.692C106.632 23.1 107.468 24.3467 108.524 25.432C109.58 26.488 110.797 27.324 112.176 27.94C113.584 28.5267 115.094 28.82 116.708 28.82C118.292 28.82 119.773 28.5267 121.152 27.94C122.53 27.324 123.733 26.488 124.76 25.432C125.816 24.3467 126.637 23.1 127.224 21.692C127.81 20.2547 128.104 18.7147 128.104 17.072C128.104 15.4293 127.796 13.904 127.18 12.496C126.593 11.0587 125.772 9.79733 124.716 8.712C123.689 7.62666 122.472 6.776 121.064 6.16C119.685 5.544 118.204 5.236 116.62 5.236C114.977 5.236 113.466 5.544 112.088 6.16C110.709 6.776 109.492 7.62666 108.436 8.712C107.38 9.79733 106.558 11.0587 105.972 12.496C105.414 13.9333 105.136 15.4587 105.136 17.072ZM152.279 33V-2.6226e-06H152.323L169.307 24.068L167.283 23.628L184.179 -2.6226e-06H184.267V33H179.603V10.604L179.911 13.024L168.119 29.7H168.031L156.019 13.024L156.811 10.824V33H152.279ZM205.548 1.056H210.256V33H205.548V1.056ZM255.072 30.58C254.603 30.9027 253.899 31.2987 252.96 31.768C252.051 32.208 250.966 32.5893 249.704 32.912C248.472 33.2347 247.108 33.3813 245.612 33.352C243.119 33.3227 240.875 32.8827 238.88 32.032C236.915 31.1813 235.243 30.0227 233.864 28.556C232.486 27.06 231.415 25.3587 230.652 23.452C229.919 21.516 229.552 19.4627 229.552 17.292C229.552 14.8867 229.934 12.6867 230.696 10.692C231.459 8.668 232.544 6.908 233.952 5.412C235.39 3.916 237.062 2.75733 238.968 1.936C240.904 1.11467 243.016 0.703999 245.304 0.703999C247.27 0.703999 249.044 0.967999 250.628 1.496C252.212 2.024 253.547 2.64 254.632 3.344L252.784 7.744C251.934 7.15733 250.878 6.6 249.616 6.072C248.384 5.51466 247.006 5.236 245.48 5.236C243.984 5.236 242.562 5.544 241.212 6.16C239.892 6.74667 238.719 7.58267 237.692 8.668C236.695 9.724 235.903 10.9707 235.316 12.408C234.73 13.816 234.436 15.356 234.436 17.028C234.436 18.7293 234.7 20.2987 235.228 21.736C235.756 23.1733 236.504 24.42 237.472 25.476C238.47 26.532 239.658 27.3533 241.036 27.94C242.415 28.5267 243.97 28.82 245.7 28.82C247.343 28.82 248.78 28.5707 250.012 28.072C251.274 27.5733 252.3 27.0013 253.092 26.356L255.072 30.58ZM300.054 1.056V33H295.346V19.228H279.154V33H274.446V1.056H279.154V14.74H295.346V1.056H300.054ZM321.356 1.056H326.064V33H321.356V1.056Z"/>
</mask>
<path d="M2.2079 10.824L1.2901 10.4267L1.28523 10.4384L2.2079 10.824ZM5.7279 5.588L5.01396 4.88779L5.7279 5.588ZM10.9199 2.024L11.3172 2.94179L11.3286 2.93668L10.9199 2.024ZM23.5479 2.024L23.1392 2.93675L23.1507 2.94172L23.5479 2.024ZM28.7839 5.588L28.0768 6.29511L28.7839 5.588ZM32.3479 10.824L31.4302 11.2212L32.3479 10.824ZM32.3479 23.408L33.2656 23.8052L32.3479 23.408ZM28.7839 28.6L28.0837 27.886L28.0768 27.8929L28.7839 28.6ZM23.5479 32.12L23.9335 33.0427L23.9402 33.0398L23.5479 32.12ZM10.9199 32.12L11.3055 31.1973L10.9199 32.12ZM5.7279 28.688L5.02075 29.3951L5.02782 29.4021L5.7279 28.688ZM2.2079 23.496L1.28322 23.8767L1.28662 23.885L1.29017 23.8932L2.2079 23.496ZM6.6959 21.692L5.77005 22.0699L5.77475 22.0814L5.77974 22.0928L6.6959 21.692ZM9.2039 25.432L8.4871 26.1294L8.49679 26.1391L9.2039 25.432ZM12.8559 27.94L12.448 28.853L12.4596 28.8582L12.4713 28.8631L12.8559 27.94ZM21.8319 27.94L22.2235 28.8602L22.2317 28.8567L22.2398 28.853L21.8319 27.94ZM25.4399 25.432L24.7232 24.7346L24.7229 24.7349L25.4399 25.432ZM27.9039 21.692L28.827 22.0766L28.8297 22.0699L27.9039 21.692ZM27.8599 12.496L26.934 12.8739L26.9388 12.8854L26.9437 12.8968L27.8599 12.496ZM25.3959 8.712L24.6694 9.39927L24.6792 9.40935L25.3959 8.712ZM21.7439 6.16L21.3359 7.07304L21.3431 7.07616L21.7439 6.16ZM12.7679 6.16L13.1758 7.07301L13.1758 7.07301L12.7679 6.16ZM9.1159 8.712L8.39917 8.01464L9.1159 8.712ZM6.6519 12.496L5.72605 12.1181L5.72272 12.1263L5.71953 12.1345L6.6519 12.496ZM1.9759 17.072C1.9759 14.9999 2.36196 13.0487 3.13056 11.2096L1.28523 10.4384C0.411162 12.5299 -0.0241044 14.7441 -0.0241044 17.072H1.9759ZM3.12562 11.2212C3.92764 9.36826 5.03199 7.7257 6.44183 6.28821L5.01396 4.88779C3.4318 6.50097 2.18948 8.34907 1.29017 10.4268L3.12562 11.2212ZM6.44183 6.28821C7.8471 4.85539 9.47014 3.74116 11.3171 2.94172L10.5227 1.10628C8.43899 2.00817 6.6007 3.26994 5.01396 4.88779L6.44183 6.28821ZM11.3286 2.93668C13.1591 2.11705 15.131 1.704 17.2559 1.704V-0.296001C14.8634 -0.296001 12.6114 0.170946 10.5112 1.11131L11.3286 2.93668ZM17.2559 1.704C19.3495 1.704 21.307 2.11629 23.1392 2.93668L23.9566 1.11131C21.8581 0.171707 19.621 -0.296001 17.2559 -0.296001V1.704ZM23.1507 2.94172C24.9995 3.74196 26.6399 4.85821 28.0768 6.29511L29.491 4.88089C27.8772 3.26712 26.027 2.00737 23.9451 1.10628L23.1507 2.94172ZM28.0768 6.29511C29.5137 7.732 30.6299 9.37239 31.4302 11.2212L33.2656 10.4268C32.3645 8.34494 31.1048 6.49466 29.491 4.88089L28.0768 6.29511ZM31.4302 11.2212C32.2251 13.0577 32.6239 15.0048 32.6239 17.072H34.6239C34.6239 14.7392 34.1721 12.521 33.2656 10.4268L31.4302 11.2212ZM32.6239 17.072C32.6239 19.2016 32.2236 21.1776 31.4302 23.0108L33.2656 23.8052C34.1735 21.7077 34.6239 19.4597 34.6239 17.072H32.6239ZM31.4302 23.0108C30.6307 24.8578 29.5165 26.4808 28.0837 27.8861L29.4841 29.3139C31.102 27.7272 32.3637 25.8889 33.2656 23.8052L31.4302 23.0108ZM28.0768 27.8929C26.6734 29.2962 25.0357 30.3984 23.1556 31.2002L23.9402 33.0398C26.0494 32.1403 27.9023 30.8958 29.491 29.3071L28.0768 27.8929ZM23.1623 31.1973C21.3248 31.9653 19.3591 32.352 17.2559 32.352V34.352C19.6113 34.352 21.8403 33.9174 23.9335 33.0427L23.1623 31.1973ZM17.2559 32.352C15.1215 32.352 13.1414 31.9646 11.3055 31.1973L10.5343 33.0427C12.629 33.9181 14.873 34.352 17.2559 34.352V32.352ZM11.3055 31.1973C9.45527 30.4241 7.83179 29.3502 6.42797 27.9739L5.02782 29.4021C6.616 30.9591 8.45386 32.1732 10.5343 33.0427L11.3055 31.1973ZM6.435 27.9809C5.02921 26.5751 3.92686 24.9499 3.12562 23.0988L1.29017 23.8932C2.19027 25.9727 3.43458 27.8089 5.02079 29.3951L6.435 27.9809ZM3.13257 23.1152C2.36394 21.2486 1.9759 19.2374 1.9759 17.072H-0.0241044C-0.0241044 19.4826 0.409182 21.7541 1.28322 23.8767L3.13257 23.1152ZM4.8159 17.072C4.8159 18.8366 5.13161 20.5057 5.77005 22.0699L7.62174 21.3141C7.08685 20.0036 6.8159 18.5927 6.8159 17.072H4.8159ZM5.77974 22.0928C6.44314 23.6092 7.34616 24.9567 8.48717 26.1294L9.92062 24.7346C8.94963 23.7367 8.18065 22.5908 7.61205 21.2912L5.77974 22.0928ZM8.49679 26.1391C9.64008 27.2824 10.9591 28.1878 12.448 28.853L13.2638 27.027C11.9954 26.4602 10.8797 25.6936 9.911 24.7249L8.49679 26.1391ZM12.4713 28.8631C14.0081 29.5034 15.6503 29.82 17.3879 29.82V27.82C15.8989 27.82 14.5197 27.5499 13.2405 27.0169L12.4713 28.8631ZM17.3879 29.82C19.0986 29.82 20.714 29.5025 22.2235 28.8602L21.4403 27.0198C20.1925 27.5508 18.8452 27.82 17.3879 27.82V29.82ZM22.2398 28.853C23.7313 28.1866 25.0396 27.2783 26.1569 26.1291L24.7229 24.7349C23.7869 25.6977 22.6898 26.4614 21.424 27.027L22.2398 28.853ZM26.1566 26.1294C27.3012 24.953 28.1922 23.6001 28.827 22.0766L26.9808 21.3074C26.4423 22.5999 25.6906 23.7403 24.7232 24.7346L26.1566 26.1294ZM28.8297 22.0699C29.4682 20.5057 29.7839 18.8366 29.7839 17.072H27.7839C27.7839 18.5927 27.5129 20.0036 26.978 21.3141L28.8297 22.0699ZM29.7839 17.072C29.7839 15.301 29.4511 13.6381 28.7761 12.0952L26.9437 12.8968C27.5007 14.1699 27.7839 15.5577 27.7839 17.072H29.7839ZM28.7857 12.1181C28.1518 10.5649 27.2605 9.19438 26.1126 8.01464L24.6792 9.40935C25.6433 10.4003 26.3947 11.5524 26.934 12.8739L28.7857 12.1181ZM26.1224 8.0248C25.0009 6.83927 23.6719 5.91199 22.1447 5.24384L21.3431 7.07616C22.6319 7.64001 23.7375 8.41406 24.6694 9.3992L26.1224 8.0248ZM22.1518 5.24699C20.6385 4.57084 19.0174 4.236 17.2999 4.236V6.236C18.7503 6.236 20.0919 6.51716 21.336 7.07301L22.1518 5.24699ZM17.2999 4.236C15.5291 4.236 13.8779 4.56876 12.36 5.24699L13.1758 7.07301C14.4152 6.51924 15.7853 6.236 17.2999 6.236V4.236ZM12.36 5.24699C10.8653 5.91482 9.54325 6.83878 8.39917 8.01464L9.83262 9.40935C10.8005 8.41455 11.9132 7.63718 13.1758 7.07301L12.36 5.24699ZM8.39917 8.01464C7.25131 9.19438 6.36001 10.5649 5.72605 12.1181L7.57774 12.8739C8.11712 11.5524 8.86848 10.4003 9.83262 9.40935L8.39917 8.01464ZM5.71953 12.1345C5.11543 13.6924 4.8159 15.3408 4.8159 17.072H6.8159C6.8159 15.5765 7.07369 14.1743 7.58426 12.8575L5.71953 12.1345ZM80.8115 34.1L80.1069 34.8096L80.3994 35.1H80.8115V34.1ZM56.2155 9.68L56.5225 8.72829L55.5109 10.3896L56.2155 9.68ZM57.5795 10.12L58.5795 10.1142L58.5753 9.39048L57.8865 9.16829L57.5795 10.12ZM57.7115 33V34H58.7173L58.7115 32.9942L57.7115 33ZM52.9595 33H51.9595V34H52.9595V33ZM52.9595 0.0439997V-0.956H51.9595V0.0439997H52.9595ZM53.1795 0.0439997L53.8891 -0.66055L53.5958 -0.956H53.1795V0.0439997ZM77.4675 24.508L77.1979 25.471L80.8471 26.4927L78.1771 23.8034L77.4675 24.508ZM76.3675 24.2L75.3675 24.2038L75.3704 24.9593L76.0979 25.163L76.3675 24.2ZM76.2795 1.056V0.0559998H75.2757L75.2795 1.0598L76.2795 1.056ZM80.9435 1.056H81.9435V0.0559998H80.9435V1.056ZM80.9435 34.1V35.1H81.9435V34.1H80.9435ZM81.5161 33.3904L56.9201 8.97036L55.5109 10.3896L80.1069 34.8096L81.5161 33.3904ZM55.9085 10.6317L57.2725 11.0717L57.8865 9.16829L56.5225 8.72829L55.9085 10.6317ZM56.5795 10.1258L56.7115 33.0058L58.7115 32.9942L58.5795 10.1142L56.5795 10.1258ZM57.7115 32H52.9595V34H57.7115V32ZM53.9595 33V0.0439997H51.9595V33H53.9595ZM52.9595 1.044H53.1795V-0.956H52.9595V1.044ZM52.4698 0.748549L76.7578 25.2125L78.1771 23.8034L53.8891 -0.66055L52.4698 0.748549ZM77.7371 23.545L76.6371 23.237L76.0979 25.163L77.1979 25.471L77.7371 23.545ZM77.3675 24.1962L77.2795 1.0522L75.2795 1.0598L75.3675 24.2038L77.3675 24.1962ZM76.2795 2.056H80.9435V0.0559998H76.2795V2.056ZM79.9435 1.056V34.1H81.9435V1.056H79.9435ZM80.9435 33.1H80.8115V35.1H80.9435V33.1ZM101.528 10.824L100.61 10.4267L100.605 10.4384L101.528 10.824ZM105.048 5.588L104.334 4.88779L105.048 5.588ZM110.24 2.024L110.637 2.94179L110.648 2.93668L110.24 2.024ZM122.868 2.024L122.459 2.93675L122.47 2.94172L122.868 2.024ZM128.104 5.588L127.396 6.29511L128.104 5.588ZM131.668 10.824L130.75 11.2212L131.668 10.824ZM131.668 23.408L132.585 23.8052L131.668 23.408ZM128.104 28.6L127.403 27.886L127.396 27.8929L128.104 28.6ZM122.868 32.12L123.253 33.0427L123.26 33.0398L122.868 32.12ZM110.24 32.12L110.625 31.1973L110.24 32.12ZM105.048 28.688L104.34 29.3951L104.348 29.4021L105.048 28.688ZM101.528 23.496L100.603 23.8767L100.606 23.885L100.61 23.8932L101.528 23.496ZM106.016 21.692L105.09 22.0699L105.094 22.0814L105.099 22.0928L106.016 21.692ZM108.524 25.432L107.807 26.1294L107.816 26.1391L108.524 25.432ZM112.176 27.94L111.768 28.853L111.779 28.8582L111.791 28.8631L112.176 27.94ZM121.152 27.94L121.543 28.8602L121.551 28.8567L121.56 28.853L121.152 27.94ZM124.76 25.432L124.043 24.7346L124.043 24.7349L124.76 25.432ZM127.224 21.692L128.147 22.0766L128.149 22.0699L127.224 21.692ZM127.18 12.496L126.254 12.8739L126.258 12.8854L126.263 12.8968L127.18 12.496ZM124.716 8.712L123.989 9.39927L123.999 9.40935L124.716 8.712ZM121.064 6.16L120.656 7.07304L120.663 7.07616L121.064 6.16ZM112.088 6.16L112.496 7.07301V7.07301L112.088 6.16ZM108.436 8.712L107.719 8.01464L108.436 8.712ZM105.972 12.496L105.046 12.1181L105.042 12.1263L105.039 12.1345L105.972 12.496ZM101.296 17.072C101.296 14.9999 101.682 13.0487 102.45 11.2096L100.605 10.4384C99.7309 12.5299 99.2956 14.7441 99.2956 17.072H101.296ZM102.445 11.2212C103.247 9.36826 104.352 7.7257 105.762 6.28821L104.334 4.88779C102.751 6.50097 101.509 8.34907 100.61 10.4268L102.445 11.2212ZM105.762 6.28821C107.167 4.85539 108.79 3.74116 110.637 2.94172L109.842 1.10628C107.759 2.00817 105.92 3.26994 104.334 4.88779L105.762 6.28821ZM110.648 2.93668C112.479 2.11705 114.451 1.704 116.576 1.704V-0.296001C114.183 -0.296001 111.931 0.170946 109.831 1.11131L110.648 2.93668ZM116.576 1.704C118.669 1.704 120.627 2.11629 122.459 2.93668L123.276 1.11131C121.178 0.171707 118.941 -0.296001 116.576 -0.296001V1.704ZM122.47 2.94172C124.319 3.74196 125.96 4.85821 127.396 6.29511L128.811 4.88089C127.197 3.26712 125.347 2.00737 123.265 1.10628L122.47 2.94172ZM127.396 6.29511C128.833 7.732 129.95 9.37239 130.75 11.2212L132.585 10.4268C131.684 8.34494 130.424 6.49466 128.811 4.88089L127.396 6.29511ZM130.75 11.2212C131.545 13.0577 131.944 15.0048 131.944 17.072H133.944C133.944 14.7392 133.492 12.521 132.585 10.4268L130.75 11.2212ZM131.944 17.072C131.944 19.2016 131.543 21.1776 130.75 23.0108L132.585 23.8052C133.493 21.7077 133.944 19.4597 133.944 17.072H131.944ZM130.75 23.0108C129.95 24.8578 128.836 26.4808 127.403 27.8861L128.804 29.3139C130.422 27.7272 131.683 25.8889 132.585 23.8052L130.75 23.0108ZM127.396 27.8929C125.993 29.2962 124.355 30.3984 122.475 31.2002L123.26 33.0398C125.369 32.1403 127.222 30.8958 128.811 29.3071L127.396 27.8929ZM122.482 31.1973C120.644 31.9653 118.679 32.352 116.576 32.352V34.352C118.931 34.352 121.16 33.9174 123.253 33.0427L122.482 31.1973ZM116.576 32.352C114.441 32.352 112.461 31.9646 110.625 31.1973L109.854 33.0427C111.949 33.9181 114.193 34.352 116.576 34.352V32.352ZM110.625 31.1973C108.775 30.4241 107.151 29.3502 105.748 27.9739L104.348 29.4021C105.936 30.9591 107.774 32.1732 109.854 33.0427L110.625 31.1973ZM105.755 27.9809C104.349 26.5751 103.247 24.9499 102.445 23.0988L100.61 23.8932C101.51 25.9727 102.754 27.8089 104.34 29.3951L105.755 27.9809ZM102.452 23.1152C101.684 21.2486 101.296 19.2374 101.296 17.072H99.2956C99.2956 19.4826 99.7289 21.7541 100.603 23.8767L102.452 23.1152ZM104.136 17.072C104.136 18.8366 104.451 20.5057 105.09 22.0699L106.941 21.3141C106.407 20.0036 106.136 18.5927 106.136 17.072H104.136ZM105.099 22.0928C105.763 23.6092 106.666 24.9567 107.807 26.1294L109.24 24.7346C108.269 23.7367 107.5 22.5908 106.932 21.2912L105.099 22.0928ZM107.816 26.1391C108.96 27.2824 110.279 28.1878 111.768 28.853L112.584 27.027C111.315 26.4602 110.199 25.6936 109.231 24.7249L107.816 26.1391ZM111.791 28.8631C113.328 29.5034 114.97 29.82 116.708 29.82V27.82C115.219 27.82 113.839 27.5499 112.56 27.0169L111.791 28.8631ZM116.708 29.82C118.418 29.82 120.034 29.5025 121.543 28.8602L120.76 27.0198C119.512 27.5508 118.165 27.82 116.708 27.82V29.82ZM121.56 28.853C123.051 28.1866 124.359 27.2783 125.477 26.1291L124.043 24.7349C123.107 25.6977 122.01 26.4614 120.744 27.027L121.56 28.853ZM125.476 26.1294C126.621 24.953 127.512 23.6001 128.147 22.0766L126.301 21.3074C125.762 22.5999 125.01 23.7403 124.043 24.7346L125.476 26.1294ZM128.149 22.0699C128.788 20.5057 129.104 18.8366 129.104 17.072H127.104C127.104 18.5927 126.833 20.0036 126.298 21.3141L128.149 22.0699ZM129.104 17.072C129.104 15.301 128.771 13.6381 128.096 12.0952L126.263 12.8968C126.82 14.1699 127.104 15.5577 127.104 17.072H129.104ZM128.105 12.1181C127.471 10.5649 126.58 9.19438 125.432 8.01464L123.999 9.40935C124.963 10.4003 125.714 11.5524 126.254 12.8739L128.105 12.1181ZM125.442 8.0248C124.321 6.83927 122.992 5.91199 121.464 5.24384L120.663 7.07616C121.952 7.64001 123.057 8.41406 123.989 9.3992L125.442 8.0248ZM121.472 5.24699C119.958 4.57084 118.337 4.236 116.62 4.236V6.236C118.07 6.236 119.412 6.51716 120.656 7.07301L121.472 5.24699ZM116.62 4.236C114.849 4.236 113.198 4.56876 111.68 5.24699L112.496 7.07301C113.735 6.51924 115.105 6.236 116.62 6.236V4.236ZM111.68 5.24699C110.185 5.91482 108.863 6.83878 107.719 8.01464L109.152 9.40935C110.12 8.41455 111.233 7.63718 112.496 7.07301L111.68 5.24699ZM107.719 8.01464C106.571 9.19438 105.68 10.5649 105.046 12.1181L106.897 12.8739C107.437 11.5524 108.188 10.4003 109.152 9.40935L107.719 8.01464ZM105.039 12.1345C104.435 13.6924 104.136 15.3408 104.136 17.072H106.136C106.136 15.5765 106.393 14.1743 106.904 12.8575L105.039 12.1345ZM152.279 33H151.279V34H152.279V33ZM152.279 -2.86102e-06V-1H151.279V-2.86102e-06H152.279ZM152.323 -2.86102e-06L153.14 -0.576569L152.841 -1H152.323V-2.86102e-06ZM169.307 24.068L169.095 25.0452L171.606 25.5911L170.124 23.4914L169.307 24.068ZM167.283 23.628L166.47 23.0463L165.586 24.2824L167.071 24.6052L167.283 23.628ZM184.179 -2.86102e-06V-1H183.665L183.366 -0.581671L184.179 -2.86102e-06ZM184.267 -2.86102e-06H185.267V-1H184.267V-2.86102e-06ZM184.267 33V34H185.267V33H184.267ZM179.603 33H178.603V34H179.603V33ZM179.603 10.604L180.595 10.4777L178.603 10.604H179.603ZM179.911 13.024L180.728 13.6014L180.952 13.2837L180.903 12.8977L179.911 13.024ZM168.119 29.7V30.7H168.637L168.936 30.2774L168.119 29.7ZM168.031 29.7L167.22 30.2845L167.519 30.7H168.031V29.7ZM156.019 13.024L155.078 12.6853L154.9 13.181L155.208 13.6085L156.019 13.024ZM156.811 10.824H157.811L155.87 10.4853L156.811 10.824ZM156.811 33V34H157.811V33H156.811ZM153.279 33V-2.86102e-06H151.279V33H153.279ZM152.279 0.999997H152.323V-1H152.279V0.999997ZM151.506 0.576563L168.49 24.6446L170.124 23.4914L153.14 -0.576569L151.506 0.576563ZM169.52 23.0908L167.496 22.6508L167.071 24.6052L169.095 25.0452L169.52 23.0908ZM168.097 24.2097L184.993 0.581666L183.366 -0.581671L166.47 23.0463L168.097 24.2097ZM184.179 0.999997H184.267V-1H184.179V0.999997ZM183.267 -2.86102e-06V33H185.267V-2.86102e-06H183.267ZM184.267 32H179.603V34H184.267V32ZM180.603 33V10.604H178.603V33H180.603ZM178.611 10.7303L178.919 13.1503L180.903 12.8977L180.595 10.4777L178.611 10.7303ZM179.095 12.4466L167.303 29.1226L168.936 30.2774L180.728 13.6014L179.095 12.4466ZM168.119 28.7H168.031V30.7H168.119V28.7ZM168.843 29.1155L156.831 12.4395L155.208 13.6085L167.22 30.2845L168.843 29.1155ZM156.96 13.3627L157.752 11.1627L155.87 10.4853L155.078 12.6853L156.96 13.3627ZM155.811 10.824V33H157.811V10.824H155.811ZM156.811 32H152.279V34H156.811V32ZM205.548 1.056V0.0559998H204.548V1.056H205.548ZM210.256 1.056H211.256V0.0559998H210.256V1.056ZM210.256 33V34H211.256V33H210.256ZM205.548 33H204.548V34H205.548V33ZM205.548 2.056H210.256V0.0559998H205.548V2.056ZM209.256 1.056V33H211.256V1.056H209.256ZM210.256 32H205.548V34H210.256V32ZM206.548 33V1.056H204.548V33H206.548ZM255.072 30.58L255.639 31.404L256.338 30.9235L255.978 30.1556L255.072 30.58ZM252.96 31.768L253.396 32.6682L253.408 32.6624L252.96 31.768ZM249.704 32.912L249.457 31.9432L249.451 31.9446L249.704 32.912ZM245.612 33.352L245.632 32.3522L245.624 32.3521L245.612 33.352ZM238.88 32.032L238.483 32.9497L238.488 32.9518L238.88 32.032ZM233.864 28.556L233.129 29.2337L233.136 29.2409L233.864 28.556ZM230.652 23.452L229.717 23.8062L229.721 23.8148L229.724 23.8234L230.652 23.452ZM230.696 10.692L231.631 11.0491L231.632 11.0446L230.696 10.692ZM233.952 5.412L233.231 4.71914L233.224 4.72663L233.952 5.412ZM238.968 1.936L238.578 1.0154L238.573 1.01759L238.968 1.936ZM250.628 1.496L250.312 2.44468L250.628 1.496ZM254.632 3.344L255.554 3.73123L255.878 2.96016L255.177 2.50504L254.632 3.344ZM252.784 7.744L252.217 8.56721L253.23 9.26593L253.706 8.13123L252.784 7.744ZM249.616 6.072L249.204 6.98311L249.217 6.98896L249.23 6.99444L249.616 6.072ZM241.212 6.16L241.619 7.07386L241.628 7.06969L241.212 6.16ZM237.692 8.668L236.966 7.9808L236.965 7.98137L237.692 8.668ZM235.316 12.408L236.24 12.7926L236.242 12.7859L235.316 12.408ZM235.228 21.736L234.29 22.0808L235.228 21.736ZM237.472 25.476L236.735 26.1517L236.74 26.1572L236.745 26.1626L237.472 25.476ZM241.036 27.94L240.645 28.8602L241.036 27.94ZM250.012 28.072L249.645 27.142L249.637 27.1451L250.012 28.072ZM253.092 26.356L253.998 25.9316L253.454 24.7714L252.461 25.5808L253.092 26.356ZM254.506 29.756C254.094 30.0392 253.439 30.4108 252.513 30.8736L253.408 32.6624C254.359 32.1865 255.112 31.7662 255.639 31.404L254.506 29.756ZM252.525 30.8678C251.69 31.2718 250.671 31.6326 249.457 31.9432L249.952 33.8808C251.261 33.5461 252.412 33.1442 253.396 32.6682L252.525 30.8678ZM249.451 31.9446C248.322 32.2403 247.052 32.38 245.632 32.3522L245.593 34.3518C247.165 34.3826 248.623 34.229 249.958 33.8794L249.451 31.9446ZM245.624 32.3521C243.242 32.324 241.13 31.9044 239.273 31.1122L238.488 32.9518C240.62 33.861 242.996 34.3213 245.601 34.3519L245.624 32.3521ZM239.278 31.1143C237.429 30.3143 235.872 29.2321 234.593 27.8711L233.136 29.2409C234.614 30.8132 236.401 32.0484 238.483 32.9497L239.278 31.1143ZM234.6 27.8783C233.304 26.4727 232.299 24.8754 231.581 23.0806L229.724 23.8234C230.531 25.842 231.667 27.6473 233.129 29.2337L234.6 27.8783ZM231.588 23.0978C230.899 21.2804 230.552 19.3476 230.552 17.292H228.552C228.552 19.5777 228.939 21.7516 229.717 23.8062L231.588 23.0978ZM230.552 17.292C230.552 14.9934 230.917 12.9163 231.631 11.0491L229.762 10.3349C228.951 12.457 228.552 14.7799 228.552 17.292H230.552ZM231.632 11.0446C232.351 9.13751 233.368 7.4922 234.681 6.09736L233.224 4.72663C231.721 6.32379 230.567 8.19849 229.761 10.3394L231.632 11.0446ZM234.674 6.10483C236.018 4.70504 237.58 3.62304 239.364 2.85441L238.573 1.01759C236.544 1.89163 234.761 3.12696 233.231 4.71917L234.674 6.10483ZM239.359 2.85658C241.161 2.09211 243.139 1.704 245.304 1.704V-0.296001C242.894 -0.296001 240.648 0.137218 238.578 1.01542L239.359 2.85658ZM245.304 1.704C247.181 1.704 248.846 1.95608 250.312 2.44468L250.945 0.547316C249.243 -0.0200815 247.359 -0.296001 245.304 -0.296001V1.704ZM250.312 2.44468C251.838 2.95322 253.091 3.53612 254.088 4.18296L255.177 2.50504C254.003 1.74388 252.587 1.09478 250.945 0.547316L250.312 2.44468ZM253.71 2.95677L251.862 7.35677L253.706 8.13123L255.554 3.73123L253.71 2.95677ZM253.352 6.92079C252.43 6.2846 251.309 5.69625 250.003 5.14956L249.23 6.99444C250.447 7.50375 251.438 8.03006 252.217 8.56721L253.352 6.92079ZM250.029 5.16089C248.651 4.53789 247.13 4.236 245.48 4.236V6.236C246.882 6.236 248.117 6.49144 249.204 6.98311L250.029 5.16089ZM245.48 4.236C243.842 4.236 242.278 4.57427 240.797 5.25031L241.628 7.06969C242.846 6.51372 244.126 6.236 245.48 6.236V4.236ZM240.806 5.24619C239.361 5.88834 238.08 6.80287 236.966 7.9808L238.419 9.3552C239.358 8.36246 240.423 7.60499 241.619 7.07381L240.806 5.24619ZM236.965 7.98137C235.878 9.13315 235.021 10.4864 234.391 12.0301L236.242 12.7859C236.786 11.4549 237.513 10.3148 238.419 9.35462L236.965 7.98137ZM234.393 12.0234C233.751 13.5645 233.436 15.2367 233.436 17.028H235.436C235.436 15.4753 235.708 14.0675 236.24 12.7926L234.393 12.0234ZM233.436 17.028C233.436 18.834 233.717 20.5215 234.29 22.0808L236.167 21.3912C235.684 20.0759 235.436 18.6247 235.436 17.028H233.436ZM234.29 22.0808C234.86 23.632 235.673 24.9931 236.735 26.1517L238.21 24.8003C237.336 23.8469 236.653 22.7147 236.167 21.3912L234.29 22.0808ZM236.745 26.1626C237.84 27.3219 239.144 28.2213 240.645 28.8602L241.428 27.0198C240.172 26.4854 239.099 25.7421 238.199 24.7894L236.745 26.1626ZM240.645 28.8602C242.165 29.507 243.856 29.82 245.7 29.82V27.82C244.084 27.82 242.665 27.5463 241.428 27.0198L240.645 28.8602ZM245.7 29.82C247.442 29.82 249.012 29.5558 250.388 28.9989L249.637 27.1451C248.549 27.5856 247.244 27.82 245.7 27.82V29.82ZM250.38 29.002C251.708 28.4771 252.831 27.8586 253.724 27.1312L252.461 25.5808C251.77 26.144 250.84 26.6695 249.645 27.142L250.38 29.002ZM252.187 26.7804L254.167 31.0044L255.978 30.1556L253.998 25.9316L252.187 26.7804ZM300.054 1.056H301.054V0.0559998H300.054V1.056ZM300.054 33V34H301.054V33H300.054ZM295.346 33H294.346V34H295.346V33ZM295.346 19.228H296.346V18.228H295.346V19.228ZM279.154 19.228V18.228H278.154V19.228H279.154ZM279.154 33V34H280.154V33H279.154ZM274.446 33H273.446V34H274.446V33ZM274.446 1.056V0.0559998H273.446V1.056H274.446ZM279.154 1.056H280.154V0.0559998H279.154V1.056ZM279.154 14.74H278.154V15.74H279.154V14.74ZM295.346 14.74V15.74H296.346V14.74H295.346ZM295.346 1.056V0.0559998H294.346V1.056H295.346ZM299.054 1.056V33H301.054V1.056H299.054ZM300.054 32H295.346V34H300.054V32ZM296.346 33V19.228H294.346V33H296.346ZM295.346 18.228H279.154V20.228H295.346V18.228ZM278.154 19.228V33H280.154V19.228H278.154ZM279.154 32H274.446V34H279.154V32ZM275.446 33V1.056H273.446V33H275.446ZM274.446 2.056H279.154V0.0559998H274.446V2.056ZM278.154 1.056V14.74H280.154V1.056H278.154ZM279.154 15.74H295.346V13.74H279.154V15.74ZM296.346 14.74V1.056H294.346V14.74H296.346ZM295.346 2.056H300.054V0.0559998H295.346V2.056ZM321.356 1.056V0.0559998H320.356V1.056H321.356ZM326.064 1.056H327.064V0.0559998H326.064V1.056ZM326.064 33V34H327.064V33H326.064ZM321.356 33H320.356V34H321.356V33ZM321.356 2.056H326.064V0.0559998H321.356V2.056ZM325.064 1.056V33H327.064V1.056H325.064ZM326.064 32H321.356V34H326.064V32ZM322.356 33V1.056H320.356V33H322.356Z" fill="#9ED0E0" mask="url(#path-1-outside-1_730_4582)"/>
</svg>
