<svg width="495" height="107" viewBox="0 0 495 107" fill="none" xmlns="http://www.w3.org/2000/svg">
<path fill-rule="evenodd" clip-rule="evenodd" d="M72.173 25.5598L70.4924 24.5053C67.3489 22.5329 63.7802 20.7717 59.7775 19.228C55.8659 17.7194 52.0341 16.9338 48.2734 16.8465L48.2628 16.8462C45.1714 16.7581 42.6344 17.1152 40.5984 17.8468L40.576 17.8549L40.5534 17.8624C38.5238 18.5377 36.843 19.4463 35.4762 20.5647C34.1955 21.6883 33.2656 22.9413 32.6497 24.3247C31.9857 25.816 31.636 27.2118 31.5588 28.5216L31.5581 28.5329C31.4034 30.9273 32.0446 32.9939 33.4948 34.8311C35.1754 36.8385 37.4399 38.6876 40.3391 40.3563C43.3721 42.0071 46.5453 43.6138 49.8592 45.1762C53.8704 46.9886 57.692 49.1339 61.3229 51.6116C65.2194 54.1103 68.3287 57.3669 70.6306 61.3629C73.0481 65.5598 73.8504 70.8531 73.2688 77.0634C72.9659 80.7718 71.9139 84.4477 70.1449 88.0826C68.4415 91.7762 65.9952 95.0561 62.8325 97.9198C59.7134 100.829 55.8341 103.096 51.2466 104.753C46.6581 106.445 41.3528 107.162 35.3772 106.97L35.3669 106.969L35.3567 106.969C30.8257 106.776 26.474 106.102 22.3059 104.941L22.2789 104.933L22.2522 104.925C18.228 103.682 14.4334 102.149 10.8715 100.323L10.8424 100.308L10.8139 100.292C7.34406 98.3678 4.19759 96.1953 1.3806 93.7713L0 92.5832L9.64353 79.0698L11.3104 80.5824C13.2456 82.3384 15.5549 84.0278 18.2516 85.6445C20.9136 87.1482 23.7572 88.3911 26.7857 89.3715C29.8925 90.2552 32.8904 90.7822 35.7821 90.9619C39.5472 90.9554 42.7951 90.3408 45.5658 89.17C48.4494 87.8978 50.6761 86.1499 52.3122 83.9452L52.3193 83.9357C54.0419 81.6431 55.0314 79.0294 55.2841 76.046C55.4386 73.5126 54.8095 71.3876 53.4392 69.5638L53.4114 69.5268L53.3853 69.4886C51.9753 67.4188 50.0446 65.6024 47.5453 64.0539L47.5107 64.0325L47.477 64.0096C44.9729 62.3135 42.1871 60.7869 39.1139 59.4335L39.1059 59.43L39.098 59.4264C36.155 58.0997 33.1238 56.5865 30.0048 54.8883L29.9933 54.8821L29.9819 54.8757C26.8873 53.1382 24.0279 51.1555 21.4067 48.9267C18.6586 46.59 16.5223 43.7432 15.0038 40.4085L14.9933 40.3854L14.9834 40.3621C13.5171 36.912 13.0829 32.9754 13.5745 28.6252C14.0723 22.9103 15.8632 17.9007 18.9949 13.6655C22.1048 9.45977 26.1669 6.26418 31.1368 4.08138L31.1435 4.07847L31.1501 4.0756C36.191 1.90503 41.7848 0.838356 47.8999 0.838356H47.9425L47.985 0.840161C52.4926 1.03163 56.6539 1.65446 60.458 2.72326C64.1932 3.6806 67.6183 4.88275 70.7256 6.33667C73.8012 7.77577 76.606 9.3669 79.134 11.1139L80.7184 12.2087L72.173 25.5598ZM59.9383 4.65089C56.2988 3.62623 52.286 3.02075 47.8999 2.83445C42.0208 2.83445 36.7015 3.85911 31.9422 5.90843C27.2762 7.95776 23.4967 10.9386 20.6038 14.8509C17.7108 18.7633 16.0311 23.4208 15.5645 28.8236C15.0979 32.9222 15.5178 36.5085 16.8243 39.5825C18.2241 42.6565 20.1838 45.2647 22.7035 47.4072C25.2231 49.5497 27.9761 51.4593 30.9623 53.136C34.0419 54.8127 37.0281 56.3031 39.9211 57.6072C43.094 59.0045 45.9869 60.5881 48.5998 62.3579C51.3061 64.0346 53.4525 66.0374 55.0389 68.3662C56.7187 70.6018 57.4653 73.21 57.2786 76.1908C56.9987 79.5443 55.8788 82.5251 53.9191 85.1333C52.0527 87.6484 49.533 89.6046 46.3602 91.0019C43.2806 92.306 39.7344 92.958 35.7217 92.958C32.6421 92.7717 29.4692 92.2128 26.203 91.2813C23.0301 90.2566 20.0439 88.9525 17.2442 87.369C15.1078 86.0894 13.1887 84.7556 11.4869 83.3675C10.9588 82.9367 10.4516 82.5006 9.96527 82.0594L2.68629 92.2594C5.39258 94.5882 8.42549 96.6841 11.785 98.5471C15.2379 100.317 18.924 101.807 22.8435 103.018C26.8562 104.136 31.0556 104.788 35.4417 104.975C41.2275 105.161 46.2668 104.462 50.5596 102.879C54.9456 101.295 58.5851 99.1526 61.478 96.4512C64.4643 93.7498 66.7506 90.6758 68.3371 87.2292C70.0168 83.7827 70.9967 80.3361 71.2767 76.8895C71.8366 70.9278 71.0434 66.084 68.897 62.3579C66.7506 58.6319 63.8577 55.6045 60.2182 53.2757C56.672 50.8538 52.9392 48.7579 49.0198 46.988C45.6603 45.4044 42.4407 43.7743 39.3611 42.0976C36.2816 40.3277 33.8086 38.325 31.9422 36.0893C30.1691 33.8537 29.3759 31.2921 29.5625 28.4044C29.6558 26.8208 30.0758 25.1907 30.8223 23.514C31.5689 21.8372 32.6887 20.3468 34.1819 19.0427C35.7683 17.7386 37.6814 16.7139 39.9211 15.9687C42.2541 15.1304 45.0537 14.7578 48.3199 14.8509C52.3327 14.9441 56.3921 15.7824 60.4982 17.366C64.6043 18.9496 68.2904 20.766 71.5566 22.8153L77.9957 12.755C75.5694 11.0783 72.8631 9.54132 69.8769 8.14405C66.8906 6.74679 63.5777 5.5824 59.9383 4.65089ZM115.711 2.97417H142.587C147.159 2.97417 151.359 3.57965 155.185 4.79062C159.104 6.00158 162.464 7.77145 165.264 10.1002C168.157 12.429 170.396 15.3167 171.983 18.7633C173.569 22.1167 174.362 26.029 174.362 30.5003C174.362 34.6921 173.662 38.9305 172.263 43.2154C170.863 47.4072 168.623 51.3195 165.544 54.9524C162.557 58.4922 158.638 61.3798 153.785 63.6155C148.933 65.7579 143.1 66.8292 136.288 66.8292H121.73L117.25 103.996H103.252L115.711 2.97417ZM123.503 68.8253L119.024 105.993H100.991L113.942 0.978081H142.587C147.334 0.978081 151.738 1.60645 155.783 2.88585C159.914 4.16313 163.509 6.04563 166.531 8.55644C169.661 11.0793 172.085 14.2089 173.795 17.9199C175.528 21.5869 176.362 25.7978 176.362 30.5003C176.362 34.9175 175.624 39.3645 174.164 43.8342L174.16 43.8466C172.673 48.2973 170.301 52.4301 167.07 56.2418C163.868 60.0357 159.7 63.0889 154.623 65.4278L154.609 65.4345L154.594 65.441C149.425 67.723 143.303 68.8253 136.288 68.8253H123.503ZM153.585 44.8123L153.593 44.8021C155.245 42.6316 156.385 40.4631 157.053 38.2969L157.063 38.2637L157.075 38.2309C157.867 35.9459 158.225 34.0312 158.225 32.4565C158.225 30.1688 157.695 27.9017 156.603 25.6374C155.573 23.5026 153.942 21.7323 151.628 20.3298L151.606 20.3165L151.584 20.3026C149.395 18.8978 146.357 18.1046 142.307 18.1046H129.799L125.669 51.8385H137.548C141.619 51.8385 144.875 51.1305 147.409 49.8252C150.077 48.4505 152.114 46.7706 153.585 44.8123ZM123.409 53.8346L128.029 16.1085H142.307C146.6 16.1085 150.052 16.9468 152.665 18.6235C155.278 20.2071 157.191 22.2564 158.405 24.7715C159.618 27.2866 160.224 29.8482 160.224 32.4565C160.224 34.3195 159.804 36.462 158.964 38.8839C158.218 41.3058 156.958 43.6811 155.185 46.0099C153.505 48.2455 151.219 50.1086 148.326 51.599C145.433 53.0894 141.84 53.8346 137.548 53.8346H123.409ZM212.803 94.3252L212.796 94.3186C207.993 90.1116 204.189 84.8913 201.375 78.6914C198.53 72.4254 197.137 65.2422 197.137 57.188C197.137 50.7858 198.352 44.2703 200.754 37.6513C203.168 30.9041 206.741 24.7372 211.462 19.1581C216.226 13.4339 222.192 8.84233 229.328 5.37584C236.553 1.77188 244.844 0 254.149 0C260.534 0 266.731 1.06276 272.731 3.18734C278.845 5.31916 284.294 8.47442 289.063 12.652C293.871 16.8632 297.674 22.1337 300.487 28.4249C303.329 34.6895 304.722 41.8707 304.722 49.9223C304.722 56.326 303.506 62.8873 301.106 69.5964L301.103 69.605C298.688 76.2588 295.116 82.4203 290.402 88.0854L290.397 88.0918L290.392 88.0982C285.625 93.7298 279.658 98.2729 272.525 101.737C265.388 105.249 257.098 106.971 247.71 106.971C241.324 106.971 235.125 105.907 229.124 103.782C223.105 101.65 217.663 98.4975 212.811 94.3317L212.803 94.3252ZM271.646 99.9444C278.552 96.5909 284.291 92.2128 288.864 86.8101C293.437 81.3141 296.89 75.3525 299.223 68.9251C301.556 62.4045 302.722 56.0702 302.722 49.9223C302.722 42.0976 301.369 35.2044 298.663 29.2428C295.956 23.1879 292.317 18.1578 287.744 14.1523C283.172 10.1468 277.946 7.11939 272.066 5.07008C266.281 3.02075 260.308 1.99609 254.149 1.99609C245.097 1.99609 237.118 3.71939 230.212 7.16597C223.307 10.5194 217.567 14.9441 212.995 20.44C208.422 25.8427 204.969 31.8044 202.636 38.325C200.303 44.7524 199.137 51.0401 199.137 57.188C199.137 65.0127 200.49 71.9059 203.196 77.8676C205.902 83.8292 209.542 88.8128 214.115 92.8183C218.781 96.8238 224.007 99.8512 229.792 101.901C235.578 103.95 241.551 104.975 247.71 104.975C256.855 104.975 264.834 103.298 271.646 99.9444ZM277.229 76.8936L277.238 76.883C280.447 72.9677 282.797 68.7132 284.304 64.113L284.309 64.0966L284.315 64.0803C285.931 59.4209 286.724 54.9375 286.724 50.6209C286.724 46.0263 285.885 41.7744 284.222 37.8439L284.212 37.8195L284.202 37.7948C282.618 33.7541 280.336 30.2078 277.351 27.1404L277.341 27.1304L277.332 27.1202C274.347 23.9653 270.838 21.5124 266.79 19.7555L266.765 19.7449L266.741 19.7337C262.834 17.9136 258.461 16.9867 253.589 16.9867C246.838 16.9867 241.096 18.2439 236.299 20.6818L236.292 20.6851L236.286 20.6884C231.487 23.0833 227.518 26.2144 224.35 30.077C221.232 33.9921 218.924 38.25 217.415 42.8576C215.888 47.5199 215.134 52.0614 215.134 56.4894C215.134 60.9994 215.931 65.2699 217.517 69.3155C219.104 73.3643 221.344 76.914 224.238 79.9809C227.231 83.0529 230.705 85.5133 234.673 87.3654C238.685 89.1021 243.115 89.9838 247.99 89.9838C254.744 89.9838 260.492 88.7717 265.293 86.4221C270.189 83.9317 274.152 80.755 277.22 76.9044L277.229 76.8936ZM266.187 88.2073C261.055 90.7224 254.989 91.9799 247.99 91.9799C242.857 91.9799 238.145 91.0484 233.852 89.1854C229.652 87.2292 225.966 84.621 222.793 81.3607C219.714 78.1004 217.334 74.3278 215.654 70.0429C213.975 65.7579 213.135 61.2401 213.135 56.4894C213.135 51.8319 213.928 47.0812 215.514 42.2373C217.101 37.3935 219.527 32.9222 222.793 28.8236C226.153 24.7249 230.352 21.4181 235.392 18.903C240.524 16.2948 246.59 14.9907 253.589 14.9907C258.722 14.9907 263.388 15.9687 267.587 17.9249C271.88 19.7879 275.613 22.3962 278.785 25.7496C281.958 29.0099 284.385 32.7825 286.064 37.0674C287.838 41.2592 288.724 45.7771 288.724 50.6209C288.724 55.1853 287.884 59.8894 286.204 64.7333C284.618 69.5771 282.145 74.0484 278.785 78.147C275.519 82.2457 271.32 85.5991 266.187 88.2073ZM332.189 0.978081H403.411L401.226 18.2443H374.356L363.578 105.993H345.55L356.329 18.2443H330.004L332.189 0.978081ZM358.588 16.2482L347.81 103.996H361.808L372.587 16.2482H399.463L401.142 2.97417H333.952L332.272 16.2482H358.588ZM486.455 25.5598L484.774 24.5053C481.63 22.5329 478.062 20.7717 474.059 19.228C470.148 17.7194 466.316 16.9338 462.555 16.8465L462.544 16.8462C459.453 16.758 456.916 17.1152 454.88 17.8468L454.858 17.8549L454.835 17.8624C452.805 18.5377 451.125 19.4463 449.758 20.5647C448.477 21.6883 447.547 22.9413 446.931 24.3247C446.267 25.816 445.918 27.2118 445.84 28.5216L445.84 28.5329C445.685 30.9273 446.326 32.9938 447.776 34.831C449.457 36.8384 451.721 38.6876 454.621 40.3563C457.654 42.0071 460.827 43.6137 464.14 45.176C468.152 46.9884 471.973 49.1337 475.604 51.6114C479.501 54.1101 482.61 57.3668 484.912 61.3629C487.33 65.5596 488.132 70.8527 487.55 77.0628C487.248 80.7712 486.196 84.4473 484.427 88.0824C482.723 91.7763 480.277 95.0565 477.113 97.9203C473.995 100.829 470.115 103.096 465.528 104.753C460.94 106.445 455.634 107.162 449.659 106.97L449.649 106.969L449.638 106.969C445.107 106.776 440.756 106.102 436.588 104.941L436.561 104.933L436.534 104.925C432.51 103.682 428.715 102.149 425.153 100.323L425.124 100.308L425.095 100.292C421.626 98.3678 418.479 96.1953 415.662 93.7713L414.282 92.5832L423.925 79.0698L425.592 80.5824C427.527 82.3384 429.837 84.0278 432.533 85.6445C435.195 87.1482 438.039 88.3911 441.067 89.3715C444.174 90.2552 447.172 90.7822 450.064 90.9619C453.829 90.9554 457.077 90.3408 459.847 89.17C462.731 87.8979 464.958 86.1499 466.594 83.9452L466.601 83.9357C468.323 81.6431 469.313 79.0295 469.566 76.0463C469.72 73.5128 469.091 71.3876 467.721 69.5638L467.693 69.5268L467.667 69.4886C466.257 67.4188 464.326 65.6024 461.827 64.0539L461.792 64.0325L461.759 64.0096C459.255 62.3135 456.469 60.7869 453.396 59.4335L453.388 59.43L453.38 59.4264C450.437 58.0997 447.405 56.5865 444.286 54.8883L444.275 54.8821L444.264 54.8757C441.169 53.1382 438.309 51.1555 435.688 48.9267C432.94 46.59 430.804 43.7432 429.285 40.4085L429.275 40.3854L429.265 40.3621C427.799 36.9117 427.364 32.9747 427.856 28.6241C428.354 22.9096 430.145 17.9004 433.276 13.6655C436.386 9.45977 440.449 6.26418 445.418 4.08138L445.425 4.07847L445.432 4.0756C450.473 1.90503 456.066 0.838356 462.182 0.838356H462.224L462.267 0.840161C466.774 1.03163 470.936 1.65446 474.74 2.72326C478.475 3.6806 481.9 4.88275 485.007 6.33667C488.083 7.77577 490.888 9.3669 493.416 11.1139L495 12.2087L486.455 25.5598ZM474.22 4.65089C470.58 3.62623 466.568 3.02075 462.182 2.83445C456.302 2.83445 450.983 3.85911 446.224 5.90843C441.558 7.95776 437.778 10.9386 434.885 14.8509C431.992 18.7633 430.313 23.4208 429.846 28.8236C429.38 32.9222 429.799 36.5085 431.106 39.5825C432.506 42.6565 434.465 45.2647 436.985 47.4072C439.505 49.5497 442.258 51.4593 445.244 53.136C448.324 54.8127 451.31 56.3031 454.203 57.6072C457.376 59.0045 460.268 60.5881 462.881 62.3579C465.588 64.0346 467.734 66.0374 469.321 68.3662C471 70.6018 471.747 73.21 471.56 76.1908C471.28 79.5443 470.16 82.5251 468.201 85.1333C466.334 87.6484 463.815 89.6046 460.642 91.0019C457.562 92.306 454.016 92.958 450.003 92.958C446.924 92.7717 443.751 92.2128 440.485 91.2813C437.312 90.2566 434.325 88.9525 431.526 87.369C429.389 86.0894 427.47 84.7556 425.769 83.3675C425.24 82.9367 424.733 82.5006 424.247 82.0594L416.968 92.2594C419.674 94.5882 422.707 96.6841 426.067 98.5471C429.519 100.317 433.206 101.807 437.125 103.018C441.138 104.136 445.337 104.788 449.723 104.975C455.509 105.161 460.548 104.462 464.841 102.879C469.227 101.295 472.867 99.1526 475.76 96.4512C478.746 93.7498 481.032 90.6758 482.619 87.2292C484.298 83.7827 485.278 80.3361 485.558 76.8895C486.118 70.9278 485.325 66.084 483.179 62.3579C481.032 58.6319 478.139 55.6045 474.5 53.2757C470.954 50.8538 467.221 48.7579 463.301 46.988C459.942 45.4044 456.722 43.7743 453.643 42.0976C450.563 40.3277 448.09 38.325 446.224 36.0893C444.451 33.8537 443.658 31.2921 443.844 28.4044C443.937 26.8208 444.357 25.1907 445.104 23.514C445.851 21.8372 446.97 20.3468 448.464 19.0427C450.05 17.7386 451.963 16.7139 454.203 15.9687C456.536 15.1304 459.335 14.7578 462.602 14.8509C466.614 14.9441 470.674 15.7824 474.78 17.366C478.886 18.9496 482.572 20.766 485.838 22.8153L485.839 22.8139L492.277 12.7553C489.851 11.0786 487.145 9.54132 484.158 8.14405C481.172 6.74679 477.859 5.5824 474.22 4.65089Z" fill="white"/>
</svg>
