<svg width="57" height="57" viewBox="0 0 57 57" fill="none" xmlns="http://www.w3.org/2000/svg">
<path d="M22.0639 37.715L31.2789 28.5L22.0639 19.285C21.844 19.0651 21.6696 18.8041 21.5506 18.5168C21.4316 18.2295 21.3704 17.9216 21.3704 17.6106C21.3704 17.2996 21.4316 16.9917 21.5506 16.7044C21.6696 16.4171 21.844 16.1561 22.0639 15.9362C22.2838 15.7163 22.5448 15.5419 22.8321 15.4229C23.1194 15.3039 23.4273 15.2427 23.7383 15.2427C24.0492 15.2427 24.3572 15.3039 24.6445 15.4229C24.9317 15.5419 25.1928 15.7163 25.4127 15.9362L36.3139 26.8375C37.2402 27.7637 37.2402 29.26 36.3139 30.1862L25.4127 41.0875C25.1929 41.3076 24.932 41.4823 24.6446 41.6015C24.3573 41.7207 24.0493 41.782 23.7383 41.782C23.4272 41.782 23.1192 41.7207 22.8319 41.6015C22.5446 41.4823 22.2836 41.3076 22.0639 41.0875C21.1614 40.1612 21.1377 38.6412 22.0639 37.715Z" fill="#9ED0E0"/>
</svg>
