<svg width="57" height="57" viewBox="0 0 57 57" fill="none" xmlns="http://www.w3.org/2000/svg">
<path d="M34.9361 37.715L25.7211 28.5L34.9361 19.285C35.156 19.0651 35.3304 18.8041 35.4494 18.5168C35.5684 18.2295 35.6296 17.9216 35.6296 17.6106C35.6296 17.2996 35.5684 16.9917 35.4494 16.7044C35.3304 16.4171 35.156 16.1561 34.9361 15.9362C34.7162 15.7163 34.4552 15.5419 34.1679 15.4229C33.8806 15.3039 33.5727 15.2427 33.2617 15.2427C32.9508 15.2427 32.6428 15.3039 32.3555 15.4229C32.0683 15.5419 31.8072 15.7163 31.5873 15.9362L20.6861 26.8375C19.7598 27.7637 19.7598 29.26 20.6861 30.1862L31.5873 41.0875C31.8071 41.3076 32.068 41.4823 32.3554 41.6015C32.6427 41.7207 32.9507 41.782 33.2617 41.782C33.5728 41.782 33.8808 41.7207 34.1681 41.6015C34.4554 41.4823 34.7164 41.3076 34.9361 41.0875C35.8386 40.1612 35.8623 38.6412 34.9361 37.715Z" fill="#9ED0E0"/>
</svg>
